<svg xmlns="http://www.w3.org/2000/svg" xmlns:xlink="http://www.w3.org/1999/xlink" width="36" height="36" preserveAspectRatio="xMidYMid meet" viewBox="0 0 36 36" style="-ms-transform: rotate(360deg); -webkit-transform: rotate(360deg); transform: rotate(360deg);"><path class="clr-i-outline clr-i-outline-path-1" d="M30 9H16.42l-2.31-3.18A2 2 0 0 0 12.49 5H6a2 2 0 0 0-2 2v22a2 2 0 0 0 2 2h24a2 2 0 0 0 2-2V11a2 2 0 0 0-2-2zm0 20H6V13h7.31a2 2 0 0 0 2-2H6V7h6.49l2.61 3.59a1 1 0 0 0 .81.41H30z" fill="#ddd"/><rect x="0" y="0" width="36" height="36" fill="rgba(0, 0, 0, 0)" /></svg>